<?xml version="1.0"?>
<svg xmlns="http://www.w3.org/2000/svg" viewBox="0 0 24 24" enable-background="new 0 0 24 24">
    <path d="M 9 0 C 5.686 0 3 2.686 3 6 C 3 9.314 5.686 12 9 12 C 12.314 12 15 9.314 15 6 C 15 2.686 12.314 0 9 0 z M 5 8 L 13 8 C 12.262 9.477 10.763 10.5 9 10.5 C 7.237 10.5 5.738 9.477 5 8 z M 5.53125 13.03125 C 3.29925 13.61825 1.551 15.011 0.75 18 L 17.25 18 C 16.448 15.011 14.70275 13.61725 12.46875 13.03125 C 11.43575 13.58525 10.253 13.90625 9 13.90625 C 7.748 13.90625 6.56525 13.58625 5.53125 13.03125 z M 18.875 15 L 18.875 18.9375 L 15 18.9375 L 15 20.125 L 18.875 20.125 L 18.875 24 L 20.09375 24 L 20.09375 20.125 L 24 20.125 L 24 18.9375 L 20.09375 18.9375 L 20.09375 15 L 18.875 15 z"/>
</svg>
