<svg xmlns="http://www.w3.org/2000/svg" viewBox="0 0 50 50">
    <path d="M 24.878906 3 C 21.193906 3.083 18.500047 4.2106094 16.873047 6.3496094 C 14.947047 8.8836094 14.496031 13.066266 15.707031 18.197266 C 15.294031 18.728266 14.924484 19.576375 15.021484 20.734375 C 15.316484 22.898375 16.138594 23.788344 16.808594 24.152344 C 17.126594 25.871344 18.116 27.825859 19 28.755859 L 19 32.318359 C 18.422 33.689359 16.41175 34.48725 14.09375 35.40625 C 10.19175 36.95225 5.3359531 38.876313 5.0019531 44.945312 L 4.9433594 46 L 28 46 C 28 45.963 27.996094 45.925672 27.996094 45.888672 C 27.981094 45.864672 27.968125 45.828734 27.953125 45.802734 C 26.723125 43.818734 26 41.492 26 39 C 26 37.478 26.279625 36.021156 26.765625 34.660156 C 26.767625 34.653156 26.769484 34.638813 26.771484 34.632812 L 26.730469 34.582031 L 26.804688 34.542969 C 26.818687 34.503969 26.836563 34.464781 26.851562 34.425781 C 26.944562 34.179781 27.040437 33.936266 27.148438 33.697266 C 27.175438 33.636266 27.208328 33.577578 27.236328 33.517578 C 27.428328 33.108578 27.639094 32.713125 27.871094 32.328125 C 27.945094 32.204125 28.019656 32.081938 28.097656 31.960938 C 28.208656 31.789938 28.324359 31.622031 28.443359 31.457031 C 28.487359 31.396031 28.525313 31.333437 28.570312 31.273438 L 25.023438 33.244141 L 21.001953 31.033203 L 21.001953 28.300781 L 21.017578 27.728516 L 20.511719 27.441406 C 20.146719 27.178406 18.887031 25.196641 18.707031 23.306641 L 18.695312 22.410156 L 17.785156 22.410156 C 17.643156 22.354156 17.196766 21.879625 17.009766 20.515625 C 16.939766 19.677625 17.368188 19.330078 17.367188 19.330078 L 17.955078 18.9375 L 17.78125 18.253906 C 16.57025 13.469906 16.858797 9.6725938 18.466797 7.5585938 C 19.705797 5.9305937 21.877391 5.068 24.900391 5 C 26.791391 5 28.152719 5.4766875 28.636719 6.3046875 L 28.880859 6.7226562 L 29.361328 6.7890625 C 30.693328 6.9770625 31.370562 7.5634062 31.976562 8.5664062 C 33.425562 10.962406 33.167781 15.735062 32.300781 18.164062 L 31.984375 18.986328 L 32.777344 19.382812 C 32.866344 19.445812 33.106875 19.791812 33.046875 20.507812 C 32.912875 21.986812 32.44475 22.382391 32.34375 22.400391 L 31.476562 22.400391 L 31.353516 23.257812 C 31.065516 25.269813 29.823906 27.179641 29.503906 27.431641 L 29 27.71875 L 29 30.572266 L 31.285156 28.285156 L 31.486328 28.085938 C 32.136328 27.059938 32.93875 25.551453 33.21875 24.189453 C 33.93575 23.848453 34.832062 22.963594 35.039062 20.683594 C 35.133063 19.558594 34.824437 18.729312 34.398438 18.195312 C 35.247437 15.467313 35.4845 10.50225 33.6875 7.53125 C 32.8345 6.12225 31.799984 5.2267656 30.083984 4.8847656 C 29.116984 3.6647656 27.299906 3 24.878906 3 z M 37 28 L 36.400391 31.199219 C 36.100391 31.299219 35.700391 31.399609 35.400391 31.599609 L 32.699219 29.699219 L 29.699219 32.699219 L 31.5 35.199219 C 31.4 35.599219 31.199609 35.900781 31.099609 36.300781 L 28 36.800781 L 28 41 L 31.099609 41.5 C 31.199609 41.8 31.3 42.2 31.5 42.5 L 29.699219 45.199219 L 32.699219 48.199219 L 35.400391 46.400391 C 35.800391 46.600391 36.1 46.700781 36.5 46.800781 L 37 50 L 41.099609 50 L 41.699219 46.900391 C 41.999219 46.800391 42.299219 46.7 42.699219 46.5 L 45.400391 48.300781 L 48.400391 45.300781 L 46.5 42.699219 C 46.7 42.299219 46.800391 41.899609 46.900391 41.599609 L 50 41 L 50 36.800781 L 46.800781 36.300781 C 46.700781 36.000781 46.600391 35.600781 46.400391 35.300781 L 48.199219 32.599609 L 45.300781 29.699219 L 42.699219 31.599609 C 42.399219 31.399609 41.999219 31.299219 41.699219 31.199219 L 41.199219 28 L 37 28 z M 38.699219 30 L 39.5 30 L 39.900391 32.699219 L 40.5 32.900391 C 41.1 33.100391 41.699219 33.299609 42.199219 33.599609 L 42.800781 34 L 45.099609 32.300781 L 45.599609 32.800781 L 44 35.099609 L 44.300781 35.599609 C 44.600781 36.199609 44.8 36.800391 45 37.400391 L 45.199219 38 L 48 38.400391 L 48 39.199219 L 45.300781 39.800781 L 45.099609 40.400391 C 44.899609 41.000391 44.700391 41.599609 44.400391 42.099609 L 44 42.699219 L 45.699219 45 L 45.099609 45.599609 L 42.800781 44 L 42.300781 44.300781 C 41.700781 44.600781 41.1 44.8 40.5 45 L 39.900391 45.199219 L 39.400391 48 L 38.599609 48 L 38.199219 45.300781 L 37.599609 45.099609 C 36.999609 44.899609 36.400391 44.700391 35.900391 44.400391 L 35.300781 44 L 32.900391 45.599609 L 32.300781 45 L 33.900391 42.699219 L 33.599609 42.199219 C 33.299609 41.599219 33.100391 40.900391 32.900391 40.400391 L 32.699219 39.800781 L 30 39.300781 L 30 38.5 L 32.800781 38 L 32.900391 37.300781 C 33.000391 36.800781 33.2 36.199219 33.5 35.699219 L 33.900391 35.199219 L 32.300781 32.900391 L 32.900391 32.300781 L 35.199219 33.900391 L 35.699219 33.699219 C 36.399219 33.399219 36.999609 33.100391 37.599609 32.900391 L 38.199219 32.800781 L 38.699219 30 z M 20.773438 33.195312 L 20.775391 33.197266 L 23.263672 34.589844 L 20.990234 37.416016 L 19.119141 35.150391 C 19.837754 34.614862 20.415268 33.983896 20.773438 33.195312 z M 39 35 C 36.804545 35 35 36.804545 35 39 C 35 41.195455 36.804545 43 39 43 C 41.165152 43 43 41.246739 43 39 C 43 36.804545 41.195455 35 39 35 z M 17.375 36.177734 L 20.228516 39.636719 A 1.0001 1.0001 0 0 0 21.779297 39.626953 L 23.742188 37.185547 L 24.5 37.800781 C 24.5 37.800781 22.508 40.77 22 44 L 7.1210938 44 C 7.8550937 40.028 11.397078 38.625625 14.830078 37.265625 C 15.716506 36.914282 16.579333 36.565013 17.375 36.177734 z M 39 37 C 40.104545 37 41 37.895455 41 39 C 41 40.203261 40.134848 41 39 41 C 37.895455 41 37 40.104545 37 39 C 37 37.895455 37.895455 37 39 37 z"/>
</svg>
